<svg width="495" height="64" viewBox="0 0 495 64" fill="none" xmlns="http://www.w3.org/2000/svg">
<g filter="url(#filter0_d_111_107)">
<path d="M0.0362439 43L11.3962 2.104H28.6442L39.8762 43H28.1962L20.3882 9.688H19.6522L11.7162 43H0.0362439ZM10.7562 34.136V25.304H29.0922V34.136H10.7562ZM61.9367 43.768C60.0381 43.768 58.4594 43.448 57.2007 42.808C55.9421 42.168 54.9501 41.272 54.2247 40.12C53.4994 38.9467 52.9874 37.5813 52.6887 36.024H49.9687L52.5287 29.144C52.5501 30.232 52.7421 31.1707 53.1047 31.96C53.4887 32.7493 54.0327 33.3573 54.7367 33.784C55.4621 34.2107 56.3367 34.424 57.3607 34.424C58.8754 34.424 60.0167 33.976 60.7847 33.08C61.5527 32.1627 61.9367 30.7973 61.9367 28.984V25.144C61.9367 23.3093 61.5634 21.9547 60.8167 21.08C60.0701 20.184 58.9394 19.736 57.4247 19.736C56.6141 19.736 55.8674 19.8853 55.1847 20.184C54.5021 20.4827 53.9154 20.888 53.4247 21.4C52.9341 21.8907 52.5714 22.4453 52.3367 23.064L49.7447 18.456H52.8487C53.1474 17.0053 53.6487 15.6933 54.3527 14.52C55.0567 13.3467 56.0487 12.4187 57.3287 11.736C58.6301 11.0533 60.2834 10.712 62.2887 10.712C65.9154 10.712 68.6567 11.928 70.5127 14.36C72.3901 16.792 73.3287 20.4613 73.3287 25.368V28.728C73.3287 33.6987 72.3901 37.4533 70.5127 39.992C68.6567 42.5093 65.7981 43.768 61.9367 43.768ZM41.3927 43V0.792H52.6567V9.912L52.4967 20.472L52.5287 21.24V32.888L52.3367 34.776L52.6567 43H41.3927ZM91.1957 43.96C85.9264 43.96 81.9477 42.68 79.2597 40.12C76.5931 37.5387 75.2597 33.9653 75.2597 29.4V25.4C75.2597 20.728 76.6037 17.08 79.2917 14.456C81.9797 11.832 85.9477 10.52 91.1957 10.52C96.4651 10.52 100.433 11.832 103.1 14.456C105.788 17.08 107.132 20.728 107.132 25.4V29.4C107.132 33.9653 105.798 37.5387 103.132 40.12C100.465 42.68 96.4864 43.96 91.1957 43.96ZM91.1957 35.064C92.7104 35.064 93.8517 34.616 94.6197 33.72C95.4091 32.8027 95.8037 31.5013 95.8037 29.816V24.952C95.8037 23.1387 95.4091 21.7627 94.6197 20.824C93.8517 19.8853 92.7104 19.416 91.1957 19.416C89.7024 19.416 88.5611 19.8853 87.7717 20.824C86.9824 21.7627 86.5877 23.1387 86.5877 24.952V29.816C86.5877 31.5013 86.9824 32.8027 87.7717 33.72C88.5611 34.616 89.7024 35.064 91.1957 35.064ZM123.835 35.64L128.603 11.48H140.187L132.443 43H114.363L106.523 11.48H118.235L123.067 35.64H123.835ZM157.143 43.832C151.106 43.832 146.669 42.52 143.831 39.896C141.015 37.272 139.607 33.432 139.607 28.376V25.912C139.607 20.8987 140.93 17.08 143.575 14.456C146.242 11.832 150.125 10.52 155.223 10.52C158.615 10.52 161.442 11.0853 163.703 12.216C165.965 13.3253 167.661 14.936 168.791 17.048C169.943 19.1387 170.519 21.6667 170.519 24.632V25.624C170.519 26.4773 170.477 27.352 170.391 28.248C170.327 29.1227 170.221 29.9333 170.071 30.68H159.927C160.013 29.3787 160.066 28.152 160.087 27C160.13 25.848 160.151 24.8133 160.151 23.896C160.151 22.7867 159.981 21.8587 159.639 21.112C159.298 20.344 158.765 19.768 158.039 19.384C157.314 18.9787 156.375 18.776 155.223 18.776C153.495 18.776 152.237 19.224 151.447 20.12C150.679 21.016 150.295 22.2853 150.295 23.928V26.776L150.359 27.992V29.976C150.359 30.6373 150.477 31.2773 150.711 31.896C150.946 32.5147 151.373 33.0693 151.991 33.56C152.631 34.0293 153.527 34.4027 154.679 34.68C155.853 34.9573 157.367 35.096 159.223 35.096C161.122 35.096 162.978 34.9467 164.791 34.648C166.605 34.328 168.354 33.8907 170.039 33.336L169.143 41.56C167.671 42.2853 165.911 42.84 163.863 43.224C161.837 43.6293 159.597 43.832 157.143 43.832ZM145.591 30.68V24.024H167.799V30.68H145.591ZM193.329 43V4.376H204.945V43H193.329ZM182.353 11.736V2.104H215.889V11.736H182.353ZM238.435 43V24.888C238.435 23.8853 238.307 23.0213 238.051 22.296C237.817 21.5707 237.401 21.016 236.803 20.632C236.227 20.248 235.417 20.056 234.371 20.056C233.582 20.056 232.878 20.1947 232.259 20.472C231.641 20.7493 231.118 21.1227 230.691 21.592C230.265 22.04 229.923 22.552 229.667 23.128L227.363 18.456H229.923C230.243 16.984 230.766 15.672 231.491 14.52C232.238 13.3467 233.273 12.4187 234.595 11.736C235.939 11.0533 237.646 10.712 239.715 10.712C242.019 10.712 243.907 11.16 245.379 12.056C246.873 12.952 247.971 14.3067 248.675 16.12C249.401 17.912 249.763 20.184 249.763 22.936V43H238.435ZM218.435 43V0.792H229.699V9.944L229.539 20.888L229.763 21.784V43H218.435ZM269.963 43.832C263.926 43.832 259.489 42.52 256.651 39.896C253.835 37.272 252.427 33.432 252.427 28.376V25.912C252.427 20.8987 253.75 17.08 256.395 14.456C259.062 11.832 262.945 10.52 268.043 10.52C271.435 10.52 274.262 11.0853 276.523 12.216C278.785 13.3253 280.481 14.936 281.611 17.048C282.763 19.1387 283.339 21.6667 283.339 24.632V25.624C283.339 26.4773 283.297 27.352 283.211 28.248C283.147 29.1227 283.041 29.9333 282.891 30.68H272.747C272.833 29.3787 272.886 28.152 272.907 27C272.95 25.848 272.971 24.8133 272.971 23.896C272.971 22.7867 272.801 21.8587 272.459 21.112C272.118 20.344 271.585 19.768 270.859 19.384C270.134 18.9787 269.195 18.776 268.043 18.776C266.315 18.776 265.057 19.224 264.267 20.12C263.499 21.016 263.115 22.2853 263.115 23.928V26.776L263.179 27.992V29.976C263.179 30.6373 263.297 31.2773 263.531 31.896C263.766 32.5147 264.193 33.0693 264.811 33.56C265.451 34.0293 266.347 34.4027 267.499 34.68C268.673 34.9573 270.187 35.096 272.043 35.096C273.942 35.096 275.798 34.9467 277.611 34.648C279.425 34.328 281.174 33.8907 282.859 33.336L281.963 41.56C280.491 42.2853 278.731 42.84 276.683 43.224C274.657 43.6293 272.417 43.832 269.963 43.832ZM258.411 30.68V24.024H280.619V30.68H258.411ZM310.181 43.928C308.303 43.928 306.533 43.8107 304.869 43.576C303.205 43.3413 301.679 43.0427 300.293 42.68C298.906 42.296 297.679 41.9013 296.613 41.496L295.621 31C297.327 31.7253 299.343 32.4187 301.669 33.08C303.994 33.72 306.437 34.04 308.997 34.04C311.279 34.04 312.869 33.8053 313.765 33.336C314.682 32.8667 315.141 32.1093 315.141 31.064V30.936C315.141 30.232 314.917 29.656 314.469 29.208C314.042 28.7387 313.317 28.3013 312.293 27.896C311.269 27.4693 309.893 26.9787 308.165 26.424C305.37 25.528 303.013 24.5573 301.093 23.512C299.173 22.4453 297.722 21.1227 296.741 19.544C295.759 17.944 295.269 15.9067 295.269 13.432V12.952C295.269 9.13333 296.581 6.22133 299.205 4.216C301.85 2.18933 305.701 1.176 310.757 1.176C313.722 1.176 316.282 1.42133 318.437 1.912C320.613 2.40267 322.49 3 324.069 3.704L325.061 13.496C323.354 12.728 321.455 12.0987 319.365 11.608C317.274 11.096 315.077 10.84 312.773 10.84C311.258 10.84 310.074 10.9467 309.221 11.16C308.389 11.352 307.813 11.6507 307.493 12.056C307.173 12.44 307.013 12.92 307.013 13.496V13.592C307.013 14.1893 307.205 14.7227 307.589 15.192C307.994 15.64 308.719 16.0987 309.765 16.568C310.81 17.0373 312.303 17.5813 314.245 18.2C317.018 19.0747 319.343 19.992 321.221 20.952C323.119 21.912 324.549 23.1493 325.509 24.664C326.469 26.1573 326.949 28.184 326.949 30.744V31.192C326.949 35.4373 325.573 38.6267 322.821 40.76C320.069 42.872 315.855 43.928 310.181 43.928ZM350.237 43.768C348.338 43.768 346.759 43.448 345.501 42.808C344.242 42.168 343.25 41.272 342.525 40.12C341.799 38.9467 341.287 37.5813 340.989 36.024H338.269L340.829 29.144C340.85 30.232 341.042 31.1707 341.405 31.96C341.789 32.7493 342.333 33.3573 343.037 33.784C343.762 34.2107 344.637 34.424 345.661 34.424C347.175 34.424 348.317 33.976 349.085 33.08C349.853 32.1627 350.237 30.7973 350.237 28.984V25.144C350.237 23.3093 349.863 21.9547 349.117 21.08C348.37 20.184 347.239 19.736 345.725 19.736C344.914 19.736 344.167 19.8853 343.485 20.184C342.802 20.4827 342.215 20.888 341.725 21.4C341.234 21.8907 340.871 22.4453 340.637 23.064L338.045 18.456H340.989C341.287 17.0053 341.799 15.6933 342.525 14.52C343.25 13.3467 344.263 12.4187 345.565 11.736C346.866 11.0533 348.541 10.712 350.589 10.712C354.215 10.712 356.957 11.928 358.813 14.36C360.69 16.792 361.629 20.4613 361.629 25.368V28.728C361.629 33.6987 360.69 37.4533 358.813 39.992C356.957 42.5093 354.098 43.768 350.237 43.768ZM329.693 54.008V11.48H340.957L340.573 20.472L340.829 21.24V32.888L340.637 34.776L340.957 43V54.008H329.693ZM375.816 25.88L372.552 19.48H375.208C375.634 16.8133 376.573 14.7333 378.024 13.24C379.474 11.7253 381.554 10.968 384.264 10.968C384.669 10.968 385.042 10.9893 385.384 11.032C385.746 11.0747 386.098 11.128 386.44 11.192L386.984 22.712C386.557 22.6267 386.045 22.5627 385.448 22.52C384.872 22.4773 384.306 22.456 383.752 22.456C381.746 22.456 380.082 22.7653 378.76 23.384C377.437 23.9813 376.456 24.8133 375.816 25.88ZM364.648 43V11.48H375.208L374.76 21.912H375.976V43H364.648ZM404.926 43.832C398.888 43.832 394.451 42.52 391.614 39.896C388.798 37.272 387.39 33.432 387.39 28.376V25.912C387.39 20.8987 388.712 17.08 391.358 14.456C394.024 11.832 397.907 10.52 403.006 10.52C406.398 10.52 409.224 11.0853 411.486 12.216C413.747 13.3253 415.443 14.936 416.574 17.048C417.726 19.1387 418.302 21.6667 418.302 24.632V25.624C418.302 26.4773 418.259 27.352 418.174 28.248C418.11 29.1227 418.003 29.9333 417.854 30.68H407.71C407.795 29.3787 407.848 28.152 407.87 27C407.912 25.848 407.934 24.8133 407.934 23.896C407.934 22.7867 407.763 21.8587 407.422 21.112C407.08 20.344 406.547 19.768 405.822 19.384C405.096 18.9787 404.158 18.776 403.006 18.776C401.278 18.776 400.019 19.224 399.23 20.12C398.462 21.016 398.078 22.2853 398.078 23.928V26.776L398.142 27.992V29.976C398.142 30.6373 398.259 31.2773 398.494 31.896C398.728 32.5147 399.155 33.0693 399.774 33.56C400.414 34.0293 401.31 34.4027 402.462 34.68C403.635 34.9573 405.15 35.096 407.006 35.096C408.904 35.096 410.76 34.9467 412.574 34.648C414.387 34.328 416.136 33.8907 417.822 33.336L416.926 41.56C415.454 42.2853 413.694 42.84 411.646 43.224C409.619 43.6293 407.379 43.832 404.926 43.832ZM393.374 30.68V24.024H415.582V30.68H393.374ZM438.851 43L439.171 34.936L438.947 34.648V24.856L438.851 23.704C438.851 22.232 438.371 21.1547 437.411 20.472C436.473 19.768 434.862 19.416 432.579 19.416C430.51 19.416 428.515 19.6613 426.595 20.152C424.697 20.6427 422.873 21.208 421.123 21.848L422.051 13.24C423.118 12.7707 424.302 12.344 425.603 11.96C426.905 11.5547 428.323 11.2347 429.859 11C431.395 10.7653 433.027 10.648 434.755 10.648C437.678 10.648 440.11 10.9893 442.051 11.672C444.014 12.3333 445.571 13.2827 446.723 14.52C447.875 15.736 448.697 17.1867 449.187 18.872C449.699 20.5573 449.955 22.4133 449.955 24.44V43H438.851ZM429.091 43.768C425.934 43.768 423.545 42.968 421.923 41.368C420.323 39.7467 419.523 37.4533 419.523 34.488V33.688C419.523 30.5307 420.483 28.2053 422.403 26.712C424.345 25.2187 427.438 24.2053 431.683 23.672L439.715 22.648L440.387 29.112L433.571 30.104C432.334 30.2747 431.47 30.5733 430.979 31C430.51 31.4053 430.275 32.0133 430.275 32.824V32.952C430.275 33.6987 430.521 34.3067 431.011 34.776C431.523 35.2453 432.366 35.48 433.539 35.48C434.521 35.48 435.363 35.352 436.067 35.096C436.793 34.8187 437.39 34.456 437.859 34.008C438.35 33.56 438.734 33.0693 439.011 32.536L440.611 36.376H438.787C438.467 37.8053 437.955 39.0747 437.251 40.184C436.569 41.2933 435.577 42.168 434.275 42.808C432.974 43.448 431.246 43.768 429.091 43.768ZM463.593 43.768C459.966 43.768 457.214 42.552 455.337 40.12C453.481 37.6667 452.553 33.9973 452.553 29.112V25.752C452.553 20.7813 453.481 17.0373 455.337 14.52C457.214 11.9813 460.073 10.712 463.913 10.712C465.79 10.712 467.347 11.032 468.585 11.672C469.822 12.312 470.793 13.208 471.497 14.36C472.222 15.512 472.723 16.8773 473.001 18.456H475.913L473.353 25.016C473.331 23.9067 473.129 22.968 472.745 22.2C472.382 21.4107 471.849 20.8027 471.145 20.376C470.462 19.9493 469.609 19.736 468.585 19.736C467.07 19.736 465.918 20.184 465.129 21.08C464.339 21.976 463.945 23.32 463.945 25.112V28.984C463.945 30.7973 464.339 32.1627 465.129 33.08C465.939 33.976 467.145 34.424 468.745 34.424C469.534 34.424 470.238 34.2853 470.857 34.008C471.497 33.7307 472.041 33.3467 472.489 32.856C472.937 32.3653 473.289 31.8 473.545 31.16L476.329 36.024H473.193C472.894 37.4747 472.382 38.7867 471.657 39.96C470.931 41.1333 469.918 42.0613 468.617 42.744C467.315 43.4267 465.641 43.768 463.593 43.768ZM473.225 43L473.545 34.776L473.353 33.208V20.6V19.16L473.225 9.912V0.792H484.489V43H473.225Z" fill="white"/>
</g>
<defs>
<filter id="filter0_d_111_107" x="0.0362549" y="0.792" width="494.453" height="63.216" filterUnits="userSpaceOnUse" color-interpolation-filters="sRGB">
<feFlood flood-opacity="0" result="BackgroundImageFix"/>
<feColorMatrix in="SourceAlpha" type="matrix" values="0 0 0 0 0 0 0 0 0 0 0 0 0 0 0 0 0 0 127 0" result="hardAlpha"/>
<feOffset dx="10" dy="10"/>
<feComposite in2="hardAlpha" operator="out"/>
<feColorMatrix type="matrix" values="0 0 0 0 0.0149264 0 0 0 0 0.104275 0 0 0 0 0.120042 0 0 0 0.25 0"/>
<feBlend mode="normal" in2="BackgroundImageFix" result="effect1_dropShadow_111_107"/>
<feBlend mode="normal" in="SourceGraphic" in2="effect1_dropShadow_111_107" result="shape"/>
</filter>
</defs>
</svg>
