<svg width="737" height="90" viewBox="0 0 737 90" fill="none" xmlns="http://www.w3.org/2000/svg">
<g filter="url(#filter0_d_111_107)">
<path d="M-1.19209e-06 63.312L17.04 1.968H42.912L59.76 63.312H42.24L30.528 13.344H29.424L17.52 63.312H-1.19209e-06ZM16.08 50.016V36.768H43.584V50.016H16.08ZM92.8507 64.464C90.0027 64.464 87.6347 63.984 85.7467 63.024C83.8587 62.064 82.3707 60.72 81.2827 58.992C80.1947 57.232 79.4267 55.184 78.9787 52.848H74.8987L78.7387 42.528C78.7707 44.16 79.0587 45.568 79.6027 46.752C80.1787 47.936 80.9947 48.848 82.0507 49.488C83.1387 50.128 84.4507 50.448 85.9867 50.448C88.2587 50.448 89.9707 49.776 91.1227 48.432C92.2747 47.056 92.8507 45.008 92.8507 42.288V36.528C92.8507 33.776 92.2907 31.744 91.1707 30.432C90.0507 29.088 88.3547 28.416 86.0827 28.416C84.8667 28.416 83.7467 28.64 82.7227 29.088C81.6987 29.536 80.8187 30.144 80.0827 30.912C79.3467 31.648 78.8027 32.48 78.4507 33.408L74.5627 26.496H79.2187C79.6667 24.32 80.4187 22.352 81.4747 20.592C82.5307 18.832 84.0187 17.44 85.9387 16.416C87.8907 15.392 90.3707 14.88 93.3787 14.88C98.8187 14.88 102.931 16.704 105.715 20.352C108.531 24 109.939 29.504 109.939 36.864V41.904C109.939 49.36 108.531 54.992 105.715 58.8C102.931 62.576 98.6427 64.464 92.8507 64.464ZM62.0347 63.312V3.8147e-06H78.9307V13.68L78.6907 29.52L78.7387 30.672V48.144L78.4507 50.976L78.9307 63.312H62.0347ZM136.739 64.752C128.835 64.752 122.867 62.832 118.835 58.992C114.835 55.12 112.835 49.76 112.835 42.912V36.912C112.835 29.904 114.851 24.432 118.883 20.496C122.915 16.56 128.867 14.592 136.739 14.592C144.643 14.592 150.595 16.56 154.595 20.496C158.627 24.432 160.643 29.904 160.643 36.912V42.912C160.643 49.76 158.643 55.12 154.643 58.992C150.643 62.832 144.675 64.752 136.739 64.752ZM136.739 51.408C139.011 51.408 140.723 50.736 141.875 49.392C143.059 48.016 143.651 46.064 143.651 43.536V36.24C143.651 33.52 143.059 31.456 141.875 30.048C140.723 28.64 139.011 27.936 136.739 27.936C134.499 27.936 132.787 28.64 131.603 30.048C130.419 31.456 129.827 33.52 129.827 36.24V43.536C129.827 46.064 130.419 48.016 131.603 49.392C132.787 50.736 134.499 51.408 136.739 51.408ZM185.699 52.272L192.851 16.032H210.227L198.611 63.312H171.49L159.73 16.032H177.298L184.546 52.272H185.699ZM235.66 64.56C226.604 64.56 219.948 62.592 215.692 58.656C211.468 54.72 209.356 48.96 209.356 41.376V37.68C209.356 30.16 211.34 24.432 215.308 20.496C219.308 16.56 225.132 14.592 232.78 14.592C237.868 14.592 242.108 15.44 245.5 17.136C248.892 18.8 251.436 21.216 253.132 24.384C254.86 27.52 255.724 31.312 255.724 35.76V37.248C255.724 38.528 255.66 39.84 255.532 41.184C255.436 42.496 255.276 43.712 255.052 44.832H239.836C239.964 42.88 240.044 41.04 240.076 39.312C240.14 37.584 240.172 36.032 240.172 34.656C240.172 32.992 239.916 31.6 239.404 30.48C238.892 29.328 238.092 28.464 237.004 27.888C235.916 27.28 234.508 26.976 232.78 26.976C230.188 26.976 228.3 27.648 227.116 28.992C225.964 30.336 225.388 32.24 225.388 34.704V38.976L225.484 40.8V43.776C225.484 44.768 225.66 45.728 226.012 46.656C226.364 47.584 227.004 48.416 227.932 49.152C228.892 49.856 230.236 50.416 231.964 50.832C233.724 51.248 235.996 51.456 238.78 51.456C241.628 51.456 244.412 51.232 247.132 50.784C249.852 50.304 252.476 49.648 255.004 48.816L253.66 61.152C251.452 62.24 248.812 63.072 245.74 63.648C242.7 64.256 239.34 64.56 235.66 64.56ZM218.332 44.832V34.848H251.644V44.832H218.332ZM289.939 63.312V5.376H307.363V63.312H289.939ZM273.475 16.416V1.968H323.779V16.416H273.475ZM357.598 63.312V36.144C357.598 34.64 357.406 33.344 357.022 32.256C356.67 31.168 356.046 30.336 355.15 29.76C354.286 29.184 353.07 28.896 351.502 28.896C350.318 28.896 349.262 29.104 348.334 29.52C347.406 29.936 346.622 30.496 345.982 31.2C345.342 31.872 344.83 32.64 344.446 33.504L340.99 26.496H344.83C345.31 24.288 346.094 22.32 347.182 20.592C348.302 18.832 349.854 17.44 351.838 16.416C353.854 15.392 356.414 14.88 359.518 14.88C362.974 14.88 365.806 15.552 368.014 16.896C370.254 18.24 371.902 20.272 372.958 22.992C374.046 25.68 374.59 29.088 374.59 33.216V63.312H357.598ZM327.598 63.312V3.8147e-06H344.494V13.728L344.254 30.144L344.59 31.488V63.312H327.598ZM404.89 64.56C395.834 64.56 389.178 62.592 384.922 58.656C380.698 54.72 378.586 48.96 378.586 41.376V37.68C378.586 30.16 380.57 24.432 384.538 20.496C388.538 16.56 394.362 14.592 402.01 14.592C407.098 14.592 411.338 15.44 414.73 17.136C418.122 18.8 420.666 21.216 422.362 24.384C424.09 27.52 424.954 31.312 424.954 35.76V37.248C424.954 38.528 424.89 39.84 424.762 41.184C424.666 42.496 424.506 43.712 424.282 44.832H409.066C409.194 42.88 409.274 41.04 409.306 39.312C409.37 37.584 409.402 36.032 409.402 34.656C409.402 32.992 409.146 31.6 408.634 30.48C408.122 29.328 407.322 28.464 406.234 27.888C405.146 27.28 403.738 26.976 402.01 26.976C399.418 26.976 397.53 27.648 396.346 28.992C395.194 30.336 394.618 32.24 394.618 34.704V38.976L394.714 40.8V43.776C394.714 44.768 394.89 45.728 395.242 46.656C395.594 47.584 396.234 48.416 397.162 49.152C398.122 49.856 399.466 50.416 401.194 50.832C402.954 51.248 405.226 51.456 408.01 51.456C410.858 51.456 413.642 51.232 416.362 50.784C419.082 50.304 421.706 49.648 424.234 48.816L422.89 61.152C420.682 62.24 418.042 63.072 414.97 63.648C411.93 64.256 408.57 64.56 404.89 64.56ZM387.562 44.832V34.848H420.874V44.832H387.562ZM465.217 64.704C462.401 64.704 459.745 64.528 457.249 64.176C454.753 63.824 452.465 63.376 450.385 62.832C448.305 62.256 446.465 61.664 444.865 61.056L443.377 45.312C445.937 46.4 448.961 47.44 452.449 48.432C455.937 49.392 459.601 49.872 463.441 49.872C466.865 49.872 469.249 49.52 470.593 48.816C471.969 48.112 472.657 46.976 472.657 45.408V45.216C472.657 44.16 472.321 43.296 471.649 42.624C471.009 41.92 469.921 41.264 468.385 40.656C466.849 40.016 464.785 39.28 462.193 38.448C458.001 37.104 454.465 35.648 451.585 34.08C448.705 32.48 446.529 30.496 445.057 28.128C443.585 25.728 442.849 22.672 442.849 18.96V18.24C442.849 12.512 444.817 8.144 448.753 5.136C452.721 2.096 458.497 0.576002 466.081 0.576002C470.529 0.576002 474.369 0.944002 477.601 1.68C480.865 2.416 483.681 3.312 486.049 4.368L487.537 19.056C484.977 17.904 482.129 16.96 478.993 16.224C475.857 15.456 472.561 15.072 469.105 15.072C466.833 15.072 465.057 15.232 463.777 15.552C462.529 15.84 461.665 16.288 461.185 16.896C460.705 17.472 460.465 18.192 460.465 19.056V19.2C460.465 20.096 460.753 20.896 461.329 21.6C461.937 22.272 463.025 22.96 464.593 23.664C466.161 24.368 468.401 25.184 471.313 26.112C475.473 27.424 478.961 28.8 481.777 30.24C484.625 31.68 486.769 33.536 488.209 35.808C489.649 38.048 490.369 41.088 490.369 44.928V45.6C490.369 51.968 488.305 56.752 484.177 59.952C480.049 63.12 473.729 64.704 465.217 64.704ZM525.301 64.464C522.453 64.464 520.085 63.984 518.197 63.024C516.309 62.064 514.821 60.72 513.733 58.992C512.645 57.232 511.877 55.184 511.429 52.848H507.349L511.189 42.528C511.221 44.16 511.509 45.568 512.053 46.752C512.629 47.936 513.445 48.848 514.501 49.488C515.589 50.128 516.901 50.448 518.437 50.448C520.709 50.448 522.421 49.776 523.573 48.432C524.725 47.056 525.301 45.008 525.301 42.288V36.528C525.301 33.776 524.741 31.744 523.621 30.432C522.501 29.088 520.805 28.416 518.533 28.416C517.317 28.416 516.197 28.64 515.173 29.088C514.149 29.536 513.269 30.144 512.533 30.912C511.797 31.648 511.253 32.48 510.901 33.408L507.013 26.496H511.429C511.877 24.32 512.645 22.352 513.733 20.592C514.821 18.832 516.341 17.44 518.293 16.416C520.245 15.392 522.757 14.88 525.829 14.88C531.269 14.88 535.381 16.704 538.165 20.352C540.981 24 542.389 29.504 542.389 36.864V41.904C542.389 49.36 540.981 54.992 538.165 58.8C535.381 62.576 531.093 64.464 525.301 64.464ZM494.485 79.824V16.032H511.381L510.805 29.52L511.189 30.672V48.144L510.901 50.976L511.381 63.312V79.824H494.485ZM563.669 37.632L558.773 28.032H562.757C563.397 24.032 564.805 20.912 566.981 18.672C569.157 16.4 572.277 15.264 576.341 15.264C576.949 15.264 577.509 15.296 578.021 15.36C578.565 15.424 579.093 15.504 579.605 15.6L580.421 32.88C579.781 32.752 579.013 32.656 578.117 32.592C577.253 32.528 576.405 32.496 575.573 32.496C572.565 32.496 570.069 32.96 568.085 33.888C566.101 34.784 564.629 36.032 563.669 37.632ZM546.917 63.312V16.032H562.757L562.085 31.68H563.909V63.312H546.917ZM607.334 64.56C598.278 64.56 591.622 62.592 587.366 58.656C583.142 54.72 581.03 48.96 581.03 41.376V37.68C581.03 30.16 583.014 24.432 586.982 20.496C590.982 16.56 596.806 14.592 604.454 14.592C609.542 14.592 613.782 15.44 617.174 17.136C620.566 18.8 623.11 21.216 624.806 24.384C626.534 27.52 627.398 31.312 627.398 35.76V37.248C627.398 38.528 627.334 39.84 627.206 41.184C627.11 42.496 626.95 43.712 626.726 44.832H611.51C611.638 42.88 611.718 41.04 611.75 39.312C611.814 37.584 611.846 36.032 611.846 34.656C611.846 32.992 611.59 31.6 611.078 30.48C610.566 29.328 609.766 28.464 608.678 27.888C607.59 27.28 606.182 26.976 604.454 26.976C601.862 26.976 599.974 27.648 598.79 28.992C597.638 30.336 597.062 32.24 597.062 34.704V38.976L597.158 40.8V43.776C597.158 44.768 597.334 45.728 597.686 46.656C598.038 47.584 598.678 48.416 599.606 49.152C600.566 49.856 601.91 50.416 603.638 50.832C605.398 51.248 607.67 51.456 610.454 51.456C613.302 51.456 616.086 51.232 618.806 50.784C621.526 50.304 624.15 49.648 626.678 48.816L625.334 61.152C623.126 62.24 620.486 63.072 617.414 63.648C614.374 64.256 611.014 64.56 607.334 64.56ZM590.006 44.832V34.848H623.318V44.832H590.006ZM658.223 63.312L658.703 51.216L658.367 50.784V36.096L658.223 34.368C658.223 32.16 657.503 30.544 656.063 29.52C654.655 28.464 652.239 27.936 648.815 27.936C645.711 27.936 642.719 28.304 639.839 29.04C636.991 29.776 634.255 30.624 631.631 31.584L633.023 18.672C634.623 17.968 636.399 17.328 638.351 16.752C640.303 16.144 642.431 15.664 644.735 15.312C647.039 14.96 649.487 14.784 652.079 14.784C656.463 14.784 660.111 15.296 663.023 16.32C665.967 17.312 668.303 18.736 670.031 20.592C671.759 22.416 672.991 24.592 673.727 27.12C674.495 29.648 674.879 32.432 674.879 35.472V63.312H658.223ZM643.583 64.464C638.847 64.464 635.263 63.264 632.831 60.864C630.431 58.432 629.231 54.992 629.231 50.544V49.344C629.231 44.608 630.671 41.12 633.551 38.88C636.463 36.64 641.103 35.12 647.471 34.32L659.519 32.784L660.527 42.48L650.303 43.968C648.447 44.224 647.151 44.672 646.415 45.312C645.711 45.92 645.359 46.832 645.359 48.048V48.24C645.359 49.36 645.727 50.272 646.463 50.976C647.231 51.68 648.495 52.032 650.255 52.032C651.727 52.032 652.991 51.84 654.047 51.456C655.135 51.04 656.031 50.496 656.735 49.824C657.471 49.152 658.047 48.416 658.463 47.616L660.863 53.376H658.127C657.647 55.52 656.879 57.424 655.823 59.088C654.799 60.752 653.311 62.064 651.359 63.024C649.407 63.984 646.815 64.464 643.583 64.464ZM695.335 64.464C689.895 64.464 685.767 62.64 682.951 58.992C680.167 55.312 678.775 49.808 678.775 42.48V37.44C678.775 29.984 680.167 24.368 682.951 20.592C685.767 16.784 690.055 14.88 695.815 14.88C698.631 14.88 700.967 15.36 702.823 16.32C704.679 17.28 706.135 18.624 707.191 20.352C708.279 22.08 709.031 24.128 709.447 26.496H713.815L709.975 36.336C709.943 34.672 709.639 33.264 709.063 32.112C708.519 30.928 707.719 30.016 706.663 29.376C705.639 28.736 704.359 28.416 702.823 28.416C700.551 28.416 698.823 29.088 697.639 30.432C696.455 31.776 695.863 33.792 695.863 36.48V42.288C695.863 45.008 696.455 47.056 697.639 48.432C698.855 49.776 700.663 50.448 703.063 50.448C704.247 50.448 705.303 50.24 706.231 49.824C707.191 49.408 708.007 48.832 708.679 48.096C709.351 47.36 709.879 46.512 710.263 45.552L714.439 52.848H709.735C709.287 55.024 708.519 56.992 707.431 58.752C706.343 60.512 704.823 61.904 702.871 62.928C700.919 63.952 698.407 64.464 695.335 64.464ZM709.783 63.312L710.263 50.976L709.975 48.624V29.712V27.552L709.783 13.68V3.8147e-06H726.679V63.312H709.783Z" fill="white"/>
</g>
<defs>
<filter id="filter0_d_111_107" x="0" y="0" width="736.679" height="89.824" filterUnits="userSpaceOnUse" color-interpolation-filters="sRGB">
<feFlood flood-opacity="0" result="BackgroundImageFix"/>
<feColorMatrix in="SourceAlpha" type="matrix" values="0 0 0 0 0 0 0 0 0 0 0 0 0 0 0 0 0 0 127 0" result="hardAlpha"/>
<feOffset dx="10" dy="10"/>
<feComposite in2="hardAlpha" operator="out"/>
<feColorMatrix type="matrix" values="0 0 0 0 0.0149264 0 0 0 0 0.104275 0 0 0 0 0.120042 0 0 0 0.25 0"/>
<feBlend mode="normal" in2="BackgroundImageFix" result="effect1_dropShadow_111_107"/>
<feBlend mode="normal" in="SourceGraphic" in2="effect1_dropShadow_111_107" result="shape"/>
</filter>
</defs>
</svg>
