<svg width="163" height="75" viewBox="0 0 163 75" fill="none" xmlns="http://www.w3.org/2000/svg">
<g filter="url(#filter0_d_43_59)">
<path d="M2.16961e-05 62.736L17.04 1.392H42.912L59.76 62.736H42.24L30.528 12.768H29.424L17.52 62.736H2.16961e-05ZM16.08 49.44V36.192H43.584V49.44H16.08ZM69.12 62.736V4.80001H86.544V62.736H69.12ZM52.656 15.84V1.392H102.96V15.84H52.656ZM127.413 64.128C124.597 64.128 121.941 63.952 119.445 63.6C116.949 63.248 114.661 62.8 112.581 62.256C110.501 61.68 108.661 61.088 107.061 60.48L105.573 44.736C108.133 45.824 111.157 46.864 114.645 47.856C118.133 48.816 121.797 49.296 125.637 49.296C129.061 49.296 131.445 48.944 132.789 48.24C134.165 47.536 134.853 46.4 134.853 44.832V44.64C134.853 43.584 134.517 42.72 133.845 42.048C133.205 41.344 132.117 40.688 130.581 40.08C129.045 39.44 126.981 38.704 124.389 37.872C120.197 36.528 116.661 35.072 113.781 33.504C110.901 31.904 108.725 29.92 107.253 27.552C105.781 25.152 105.045 22.096 105.045 18.384V17.664C105.045 11.936 107.013 7.56801 110.949 4.56001C114.917 1.52001 120.693 5.72205e-06 128.277 5.72205e-06C132.725 5.72205e-06 136.565 0.368006 139.797 1.10401C143.061 1.84001 145.877 2.73601 148.245 3.79201L149.733 18.48C147.173 17.328 144.325 16.384 141.189 15.648C138.053 14.88 134.757 14.496 131.301 14.496C129.029 14.496 127.253 14.656 125.973 14.976C124.725 15.264 123.861 15.712 123.381 16.32C122.901 16.896 122.661 17.616 122.661 18.48V18.624C122.661 19.52 122.949 20.32 123.525 21.024C124.133 21.696 125.221 22.384 126.789 23.088C128.357 23.792 130.597 24.608 133.509 25.536C137.669 26.848 141.157 28.224 143.973 29.664C146.821 31.104 148.965 32.96 150.405 35.232C151.845 37.472 152.565 40.512 152.565 44.352V45.024C152.565 51.392 150.501 56.176 146.373 59.376C142.245 62.544 135.925 64.128 127.413 64.128Z" fill="white"/>
</g>
<defs>
<filter id="filter0_d_43_59" x="0" y="0" width="162.565" height="74.128" filterUnits="userSpaceOnUse" color-interpolation-filters="sRGB">
<feFlood flood-opacity="0" result="BackgroundImageFix"/>
<feColorMatrix in="SourceAlpha" type="matrix" values="0 0 0 0 0 0 0 0 0 0 0 0 0 0 0 0 0 0 127 0" result="hardAlpha"/>
<feOffset dx="10" dy="10"/>
<feComposite in2="hardAlpha" operator="out"/>
<feColorMatrix type="matrix" values="0 0 0 0 0.0149264 0 0 0 0 0.104275 0 0 0 0 0.120042 0 0 0 0.25 0"/>
<feBlend mode="normal" in2="BackgroundImageFix" result="effect1_dropShadow_43_59"/>
<feBlend mode="normal" in="SourceGraphic" in2="effect1_dropShadow_43_59" result="shape"/>
</filter>
</defs>
</svg>
